<?xml version="1.0" standalone="no"?>
<!DOCTYPE svg PUBLIC "-//W3C//DTD SVG 1.1//EN" "http://www.w3.org/Graphics/SVG/1.1/DTD/svg11.dtd" >
<svg xmlns="http://www.w3.org/2000/svg">
<metadata>Generated by IcoMoon</metadata>
<defs>
<font id="icomoon" horiz-adv-x="1024">
<font-face units-per-em="1024" ascent="960" descent="-64" />
<missing-glyph horiz-adv-x="1024" />
<glyph unicode="&#x20;" horiz-adv-x="512" d="" />
<glyph unicode="&#xe079;" glyph-name="none" d="M892.118 771.882l-120.234 120.236c-37.338 37.336-111.084 67.882-163.884 67.882h-448c-52.8 0-96-43.2-96-96v-832c0-52.8 43.2-96 96-96h704c52.8 0 96 43.2 96 96v576c0 52.8-30.546 126.546-67.882 163.882zM832 64h-640v768h416c4.958 0 17.014-2.068 32-7.562v-184.438h184.44c5.492-14.986 7.56-27.042 7.56-32v-544z" />
<glyph unicode="&#xe499;" glyph-name="facebook" d="M853.344 960h-682.66c-93.872 0-170.684-76.814-170.684-170.688v-682.626c0-93.938 76.812-170.686 170.684-170.686l682.66 0.002c93.876 0 170.656 76.746 170.656 170.688v682.622c0 93.874-76.782 170.688-170.656 170.688zM870.592 448h-166.592v-448h-192v448h-92.526v146.564h92.526v95.186c0 129.342 55.792 206.25 207.87 206.25h175.244v-158.57h-143.13c-42.482 0.070-47.752-22.152-47.752-63.512l-0.232-79.354h192l-25.408-146.564z" />
<glyph unicode="&#xe49c;" glyph-name="instagram" d="M854 960h-684c-93.5 0-170-76.5-170-170v-684c0-93.5 76.5-170 170-170h684c93.5 0 170 76.5 170 170v684c0 93.5-76.5 170-170 170zM327.8 512h368.4c6.988-20.058 10.8-41.59 10.8-64 0-107.524-87.476-195-195-195s-195 87.476-195 195c0 22.41 3.812 43.942 10.8 64zM896 511.95v-383.95c0-35.2-28.8-64-64-64h-640c-35.2 0-64 28.8-64 64v384h100.108c-4.642-20.602-7.108-42.016-7.108-64 0-160.458 130.542-291 291-291s291 130.542 291 291c0 21.984-2.464 43.398-7.108 64l100.108-0.050zM896 736c0-17.6-14.4-32-32-32h-64c-17.6 0-32 14.4-32 32v64c0 17.6 14.4 32 32 32h64c17.6 0 32-14.4 32-32v-64z" />
<glyph unicode="&#xe49d;" glyph-name="twitter" d="M1024 765.582c-37.676-16.708-78.164-28.002-120.66-33.080 43.372 26 76.686 67.17 92.372 116.23-40.596-24.078-85.556-41.56-133.41-50.98-38.32 40.83-92.922 66.34-153.346 66.34-116.022 0-210.088-94.058-210.088-210.078 0-16.466 1.858-32.5 5.44-47.878-174.6 8.764-329.402 92.4-433.018 219.506-18.084-31.028-28.446-67.116-28.446-105.618 0-72.888 37.088-137.192 93.46-174.866-34.438 1.092-66.832 10.542-95.154 26.278-0.020-0.876-0.020-1.756-0.020-2.642 0-101.788 72.418-186.696 168.522-206-17.626-4.8-36.188-7.372-55.348-7.372-13.538 0-26.698 1.32-39.528 3.772 26.736-83.46 104.32-144.206 196.252-145.896-71.9-56.35-162.486-89.934-260.916-89.934-16.958 0-33.68 0.994-50.116 2.94 92.972-59.61 203.402-94.394 322.042-94.394 386.422 0 597.736 320.124 597.736 597.744 0 9.108-0.206 18.168-0.61 27.18 41.056 29.62 76.672 66.62 104.836 108.748z" />
<glyph unicode="&#xe4a3;" glyph-name="youtube" d="M832 832h-640c-105.6 0-192-86.4-192-192v-384c0-105.6 86.4-192 192-192h640c105.6 0 192 86.4 192 192v384c0 105.6-86.4 192-192 192zM384 192v512l320-256-320-256z" />
<glyph unicode="&#xe600;" glyph-name="basket" horiz-adv-x="1055" d="M1030.273 558.554c-17.25 17.25-39.204 26.658-62.726 26.658h-114.475l-247.767 244.631c7.841 14.113 10.977 26.658 10.977 40.772 0 23.522-9.409 45.476-26.658 62.726s-39.204 26.658-62.726 26.658c-48.613 0-87.816-40.772-87.816-89.384 0-14.113 3.136-26.658 10.977-40.772l-246.199-246.199h-114.475c-81.544 0-89.384-56.453-89.384-105.066 0-39.204 6.273-87.816 65.862-100.361l59.59-420.263c1.568-12.545 12.545-23.522 26.658-23.522h752.711c12.545 0 25.090 9.409 26.658 23.522l59.59 420.263c15.681 4.704 29.795 10.977 39.204 21.954 17.25 17.25 26.658 56.453 26.658 78.407-1.568 21.954-9.409 61.158-26.658 79.975zM904.821 155.541l-23.522-167.792h-200.723v167.792h224.245zM936.184 373.513l-23.522-166.224h-232.086v166.224h255.608zM627.259 155.541v-167.792h-197.587v167.792h197.587zM627.259 373.513v-166.224h-197.587v166.224h197.587zM376.355 155.541v-167.792h-200.723l-25.090 167.792h225.813zM376.355 373.513v-166.224h-232.086l-25.090 166.224h257.176zM564.533 870.616c0-9.409-3.136-18.818-10.977-25.090-9.409-9.409-25.090-12.545-39.204-7.841-4.704 1.568-7.841 4.704-10.977 7.841-6.273 6.273-10.977 15.681-10.977 25.090 0 20.386 15.681 36.067 36.067 36.067 18.818 0 36.067-15.681 36.067-36.067zM487.694 792.208c1.568 0 1.568 0 3.136-1.568 3.136-1.568 4.704-3.136 7.841-3.136 7.841-3.136 17.25-4.704 26.658-4.704 1.568 0 3.136 0 7.841 0 7.841 0 17.25 1.568 25.090 4.704 3.136 1.568 4.704 1.568 7.841 3.136 1.568 0 1.568 0 3.136 1.568 0 0 0 0 0 0l208.564-208.564h-498.671l208.564 208.564c-1.568 0 0 0 0 0zM1003.614 478.579c0-34.499-12.545-51.749-36.067-51.749h-878.162c-32.931 0-36.067 21.954-36.067 51.749s3.136 51.749 36.067 51.749h878.162c32.931 0 36.067-20.386 36.067-51.749z" />
<glyph unicode="&#xe601;" glyph-name="location" d="M794.060 674.874c0-294.323-282.060-462.946-285.126-738.874 0 275.928-285.126 447.617-285.126 738.874 0 156.359 125.701 285.126 285.126 285.126s285.126-125.701 285.126-285.126z" />
<glyph unicode="&#xe602;" glyph-name="pdf" horiz-adv-x="782" d="M488.273 856.351l193.561-189.815h-193.561v189.815zM62.439 897.561h363.395v-293.463h293.463v-605.659h-656.859v899.122zM0 960v-1024h781.737v723.044l-312.195 300.956h-469.541zM187.317 434.263c12.488 2.498 29.971 3.746 53.698 3.746 24.976 0 42.459-4.995 53.698-13.737s18.732-23.727 18.732-41.21c0-17.483-4.995-32.468-16.234-42.459-13.737-12.488-33.717-18.732-57.444-18.732-4.995 0-9.99 0-13.737 1.249v-63.688h-38.712v174.829zM226.029 354.341c3.746-1.249 7.493-1.249 13.737-1.249 21.229 0 34.966 11.239 34.966 28.722 0 16.234-11.239 26.224-31.22 26.224-7.493 0-13.737 0-16.234-1.249v-52.449zM339.668 434.263c14.985 2.498 33.717 3.746 53.698 3.746 33.717 0 56.195-6.244 72.429-18.732 18.732-13.737 29.971-34.966 29.971-66.185 0-33.717-12.488-57.444-28.722-71.18-18.732-14.985-47.454-22.478-82.42-22.478-21.229 0-36.215 1.249-44.956 2.498v172.332zM379.629 289.405c3.746-1.249 8.741-1.249 13.737-1.249 36.215 0 59.941 19.98 59.941 62.439 0 36.215-21.229 56.195-56.195 56.195-8.741 0-14.985-1.249-17.483-1.249v-116.137zM521.99 436.761h107.395v-32.468h-67.434v-39.961h63.688v-32.468h-63.688v-71.18h-39.961v176.078z" />
<glyph unicode="&#xe603;" glyph-name="link" d="M953.396 885.358l-4.028 4.042c-94.148 94.134-248.194 94.134-342.326 0l-218.106-218.136c-94.134-94.132-94.134-248.176 0-342.31l4.026-4.026c7.832-7.848 16.146-14.924 24.736-21.458l79.848 79.85c-9.302 5.494-18.126 12.072-26.116 20.060l-4.042 4.042c-51.114 51.098-51.114 134.272 0 185.39l218.128 218.112c51.116 51.118 134.274 51.118 185.386 0l4.042-4.024c51.1-51.116 51.1-134.292 0-185.39l-98.686-98.686c17.132-42.308 25.248-87.4 24.538-132.386l152.604 152.604c94.134 94.136 94.134 248.178-0.004 342.316zM631.042 571.066c-7.832 7.832-16.146 14.922-24.736 21.44l-79.848-79.832c9.304-5.496 18.126-12.074 26.116-20.062l4.042-4.040c51.116-51.116 51.116-134.272 0-185.388l-218.13-218.134c-51.118-51.102-134.276-51.102-185.388 0l-4.042 4.042c-51.098 51.12-51.098 134.276 0 185.388l98.688 98.686c-17.134 42.306-25.246 87.402-24.538 132.386l-152.602-152.598c-94.136-94.132-94.136-248.178 0-342.324l4.026-4.032c94.152-94.128 248.192-94.128 342.328 0l218.11 218.118c94.134 94.132 94.134 248.194 0 342.326l-4.026 4.024z" />
<glyph unicode="&#xe604;" glyph-name="print" horiz-adv-x="1071" d="M158.714 557.924h59.959v-58.783h-59.959v58.783zM333.887 233.442h403.251v-58.783h-403.251v58.783zM333.887 120.579h403.251v-58.783h-403.251v58.783zM277.456 174.659v122.269h513.763v-302.145h-513.763v179.876zM58.783 615.532h952.285v-382.090h-161.065v63.486h58.783v58.783h-750.071v-58.783h59.959v-63.486h-159.89v382.090zM277.456 901.217h513.763v-226.902h-513.763v226.902zM218.673 960v-285.685h-218.673v-499.656h218.673v-238.659h631.33v238.659h219.848v499.656h-219.848v285.685h-631.33z" />
<glyph unicode="&#xe605;" glyph-name="angle-left" d="M640-64l192 192-320 320 320 320-192 192-512-512z" />
<glyph unicode="&#xe606;" glyph-name="angle-right" d="M384 960l-192-192 320-320-320-320 192-192 512 512z" />
<glyph unicode="&#xe607;" glyph-name="angle-down" d="M1024 576l-192 192-320-320-320 320-192-192 512-511.998z" />
<glyph unicode="&#xe608;" glyph-name="angle-up" d="M0 320l192-192 320 320 320-320 192 192-511.998 512z" />
<glyph unicode="&#xe609;" glyph-name="arrow-left" d="M82.7 493.3c-25-25-25-65.5 0-90.5l320-320c25-25 51.3-5.7 76.3 19.3s39.3 46.3 14.3 71.3l-210.8 210.6h613.5c35.3 0 40 28.7 40 64s-4.7 64-40 64h-613.5zM282.5 384h613.5c35.3 0 40 28.7 40 64s-4.7 64-40 64h-613.5l210.7 210.7c25.1 25 10.8 46.3-14.2 71.3s-51.3 44.2-76.3 19.3l-320-320c-25-25-25-65.5 0-90.5z" />
<glyph unicode="&#xe60a;" glyph-name="arrow-right" d="M717.5 512h-613.5c-35.3 0-40-28.7-40-64s4.7-64 40-64h613.5l-210.8-210.7c-25-25-10.7-46.3 14.3-71.3s51.3-44.2 76.3-19.3l320 320c25 25 25 65.5 0 90.5zM917.3 402.7c25 25 25 65.5 0 90.5l-320 320c-25 25-51.3 5.8-76.3-19.2s-39.3-46.3-14.3-71.3l210.8-210.7h-613.5c-35.3 0-40-28.7-40-64s4.7-64 40-64h613.5z" />
<glyph unicode="&#xe60b;" glyph-name="arrow-down" d="M454.7 30.8c25-25 65.5-25 90.5 0l320 320c25 25 5.7 51.3-19.3 76.3s-46.3 39.3-71.3 14.3l-210.6-210.8v613.5c0 35.3-28.7 40-64 40s-64-4.7-64-40v-613.5l18.7-199.8zM564 230.6v613.5c0 35.3-28.7 40-64 40s-64-4.7-64-40v-613.5l-210.7 210.7c-25 25.1-46.3 10.8-71.3-14.2s-44.2-51.3-19.3-76.3l320-320c25-25 65.5-25 90.5 0l18.8 199.8z" />
<glyph unicode="&#xe60c;" glyph-name="arrow-up" d="M545.2 865.3c-25 25-65.5 25-90.5 0l-320-320c-25-25-5.7-51.3 19.3-76.3s46.3-39.3 71.3-14.3l210.6 210.8v-613.5c0-35.3 28.7-40 64-40s64 4.7 64 40v613.5l-18.7 199.8zM435.9 665.5v-613.5c0-35.3 28.7-40 64-40s64 4.7 64 40v613.5l210.7-210.7c25-25.1 46.3-10.8 71.3 14.2s44.2 51.3 19.3 76.3l-320 320c-25 25-65.5 25-90.5 0l-18.8-199.8z" />
<glyph unicode="&#xe60d;" glyph-name="minus" d="M415.958 378.060h576.084c17.736 0 31.958 14.222 31.958 31.958v111.937c0 17.736-14.222 31.958-31.958 31.958h-576.084zM423.99 554.081h-392.031c-17.736 0-31.958-14.39-31.958-31.958v-111.937c0-17.736 14.222-31.958 31.958-31.958h392.031z" />
<glyph unicode="&#xe60e;" glyph-name="plus" d="M992 536h-392v392c0 17.7-14.3 32-32 32h-112c-17.7 0-32-14.3-32-32v-392h-392c-17.7 0-32-14.3-32-32v-112c0-17.7 14.3-32 32-32h392v-392c0-17.7 14.3-32 32-32h112c17.7 0 32 14.3 32 32v392h392c17.7 0 32 14.3 32 32v112c0 17.7-14.3 32-32 32z" />
<glyph unicode="&#xe60f;" glyph-name="close" d="M993.4 116.1c0 0 0 0 0 0l-331.8 331.9 331.9 331.9c0 0 0 0 0 0 3.3 3.3 5.8 7.3 7.3 11.4 4.2 11.4 1.8 24.7-7.3 33.8l-104.4 104.3c-9.1 9.1-22.4 11.6-33.8 7.3-4.2-1.6-8.1-4-11.4-7.3 0 0 0 0 0 0l-331.9-331.8-331.9 331.8c0 0 0 0 0 0-3.3 3.3-7.3 5.8-11.4 7.3-11.4 4.2-24.7 1.8-33.8-7.3l-104.3-104.3c-9.1-9.1-11.6-22.5-7.3-33.8 1.6-4.2 4-8.1 7.3-11.4 0 0 0 0 0 0l331.8-331.9-331.8-331.9c0 0 0 0 0 0-3.3-3.3-5.8-7.3-7.3-11.4-4.2-11.4-1.8-24.7 7.3-33.8l104.3-104.3c9.1-9.1 22.5-11.6 33.8-7.3 4.2 1.6 8.1 4 11.4 7.3 0 0 0 0 0 0l331.9 331.8 331.9-331.9c0 0 0 0 0 0 3.3-3.3 7.3-5.8 11.4-7.3 11.4-4.2 24.7-1.8 33.8 7.3l104.3 104.3c9.1 9.1 11.6 22.5 7.3 33.8-1.5 4.3-3.9 8.2-7.3 11.5v0z" />
<glyph unicode="&#xe610;" glyph-name="menu" d="M64 768h896v-192h-896zM64 512h896v-192h-896zM64 256h896v-192h-896z" />
<glyph unicode="&#xe900;" glyph-name="editIcon" horiz-adv-x="839" d="M0 448v-512h838.94v388.627h-74.024v-314.602h-690.892v875.952l142.805 0.617 142.496 0.925 0.925 36.395 0.925 36.087h-361.176v-512zM531.123 669.764l-173.031-222.381 58.911-45.957c32.386-25.292 59.836-45.957 60.761-45.957 3.393 0.308 344.212 440.443 344.212 444.453 0 3.701-111.036 92.222-115.663 92.222-0.925 0-79.884-100.241-175.19-222.381zM322.622 393.407c-3.084-22.516-11.72-124.607-10.487-125.841 1.542-1.542 123.373 41.022 126.766 44.414 1.234 1.234-15.422 16.039-37.012 32.694-21.899 16.964-48.116 37.32-58.602 45.34l-18.814 14.805-1.851-11.412z" />
</font>
</defs>
</svg>
